<?xml version="1.0" encoding="UTF-8"?>
<svg width="570px" height="124px" viewBox="0 0 570 124" version="1.1" xmlns="http://www.w3.org/2000/svg" xmlns:xlink="http://www.w3.org/1999/xlink">
    <title>Logo/Default</title>
    <g id="Logo/Default" stroke="none" stroke-width="1" fill="none" fill-rule="evenodd">
        <polygon id="Fill" fill="#000000" points="0 124.258 522.67 124.258 522.67 2.879 0 2.879"></polygon>
        <path d="M122.4527,9.7189 L122.4527,19.6439 L17.8387,19.6439 L17.8387,48.6139 L33.3707,48.6139 C38.8827,36.6419 50.9627,28.3619 65.0487,28.3619 C79.0367,28.3619 91.1607,36.6419 96.7047,48.6139 L122.4527,48.6139 L122.4527,58.1369 L89.0687,58.1369 C86.7347,46.9219 76.8467,38.5549 64.9147,38.5549 C52.9827,38.5549 42.9927,46.9219 40.6327,58.1369 L8.0477,58.1369 L8.0477,9.7189 L122.4527,9.7189 Z" id="Fill-2" fill="#FFFFFF"></path>
        <path d="M8.0474,116.7473 L8.0474,106.9563 L112.6614,106.9563 L112.6614,76.6453 L97.2114,76.6453 C91.9234,89.1683 79.4734,97.9703 65.0484,97.9703 C50.5234,97.9703 38.1234,89.1683 32.8674,76.6453 L8.0474,76.6453 L8.0474,66.8543 L40.3694,66.8543 C42.1284,78.8243 52.4644,88.0463 64.9144,88.0463 C77.3644,88.0463 87.5894,78.8243 89.3284,66.8543 L122.4524,66.8543 L122.4524,116.7473 L8.0474,116.7473 Z" id="Fill-4" fill="#FFFFFF"></path>
        <polygon id="Fill-6" fill="#FFFFFF" points="129.963 116.747 516.366 116.747 516.366 9.719 129.963 9.719"></polygon>
        <path d="M550.0298,38.9582 C539.6018,38.9582 531.1178,30.4742 531.1178,20.0462 C531.1178,9.5442 539.6018,1.0002 550.0298,1.0002 C560.5318,1.0002 569.0768,9.5442 569.0768,20.0462 C569.0768,30.4742 560.5318,38.9582 550.0298,38.9582" id="Fill-8" fill="#000000"></path>
        <path d="M550.0298,5.2941 C541.9688,5.2941 535.4128,11.9121 535.4128,20.0461 C535.4128,28.1061 541.9688,34.6641 550.0298,34.6641 C558.1648,34.6641 564.7818,28.1061 564.7818,20.0461 C564.7818,11.9121 558.1648,5.2941 550.0298,5.2941" id="Fill-9" fill="#FFFFFF"></path>
        <polygon id="Fill-11" fill="#000000" points="240.4791 72.756 262.8771 72.756 263.0111 60.417 201.5841 60.417 201.5841 72.756 223.9821 72.756 223.9821 111.517 240.4791 111.517"></polygon>
        <path d="M374.063,60.4167 L374.063,93.5447 C374.063,98.1047 370.979,99.0427 357.164,99.0427 C342.277,99.0427 342.142,97.5687 340.533,93.6787 L340.533,60.4167 L324.037,60.4167 L324.037,96.0927 C326.853,114.6017 340.533,112.3217 357.298,112.4557 C376.477,112.4557 388.146,114.6017 390.426,96.0927 L390.292,60.4167 L374.063,60.4167 Z" id="Fill-12" fill="#000000"></path>
        <polygon id="Fill-13" fill="#000000" points="412.5562 72.8898 451.3172 72.8898 451.3172 60.4168 396.0592 60.4168 396.0592 111.5168 412.5562 111.5168 412.5562 94.2148 449.4392 94.2148 449.4392 81.6078 412.5562 81.6078"></polygon>
        <polygon id="Fill-14" fill="#000000" points="472.5084 72.8898 511.4034 72.8898 511.4034 60.4168 456.1454 60.4168 456.1454 111.5168 472.5084 111.5168 472.5084 94.2148 509.5254 94.2148 509.5254 81.6078 472.5084 81.6078"></polygon>
        <path d="M195.4141,66.7199 C197.2921,69.9399 197.4261,75.5729 197.4261,75.5729 C197.4261,75.5729 182.5391,75.7059 181.6001,75.7059 C180.6611,70.8779 177.7101,71.4139 177.0391,70.8779 C177.0391,70.8779 163.8961,70.4759 156.2511,70.8779 C153.5681,71.0119 150.2151,71.0119 149.5451,74.2309 C149.1421,76.6459 152.3611,77.9869 153.7031,78.1199 C153.7031,78.1199 171.1381,78.7909 187.6351,79.5959 C195.9511,80.6689 198.0971,88.9849 197.9621,95.6909 C197.5601,104.1399 194.4761,109.6389 186.8301,110.9809 C182.6731,111.7849 175.4301,112.3219 165.7731,112.1879 C156.1171,112.0529 147.9351,112.1879 142.8381,110.3099 C135.8651,107.6269 134.3891,99.9829 134.9261,94.2149 L150.3501,94.2149 C150.7521,94.6169 149.2771,100.1159 155.0441,99.9829 C155.0441,99.9829 177.3081,100.5189 179.7221,99.5799 C181.7341,99.0429 182.8071,97.4339 182.5391,95.8239 C182.4041,93.9469 182.4041,91.9349 178.9171,91.6669 C172.4791,91.1299 149.6791,91.5319 145.6551,90.4599 C145.2531,90.3249 134.5231,89.5209 134.7911,75.1699 C134.9261,61.0879 143.5091,60.2829 144.7171,59.4779 C145.9231,58.8069 153.5681,58.1369 165.7731,58.4049 C174.0891,58.4049 192.4631,57.0639 195.4141,66.7199" id="Fill-15" fill="#000000"></path>
        <path d="M277.0938,91.801 L287.9578,71.549 L298.6868,91.667 L277.0938,91.801 Z M299.7608,60.417 L276.0208,60.551 L249.0628,111.651 L266.7668,111.517 L271.3268,102.933 L304.4548,102.933 L309.0138,111.517 L326.5848,111.651 L299.7608,60.417 Z" id="Fill-16" fill="#000000"></path>
        <path d="M547.7496,29.9714 L543.7266,29.9714 L543.7266,9.4504 L548.5546,9.4504 L550.0296,9.4504 C552.4436,9.4504 554.3216,9.9874 555.5286,11.1944 C556.8696,12.2674 557.5406,13.8774 557.5406,15.8884 C557.5406,17.4984 557.1386,18.8394 556.1996,19.9124 C555.3956,20.9854 554.1876,21.7894 552.7126,22.0584 L557.8096,29.9714 L553.1146,29.9714 L547.7496,20.4494 L547.7496,29.9714 Z M547.7496,19.5104 L548.6886,19.5104 C550.2986,19.5104 551.5056,19.1074 552.3106,18.5714 C553.1146,18.0344 553.5176,17.0954 553.5176,16.0224 C553.5176,14.9504 553.2486,14.1454 552.5786,13.6084 C551.9076,13.0724 550.7006,12.8044 549.2256,12.8044 L547.7496,12.8044 L547.7496,19.5104 Z" id="Fill-10" fill="#000000"></path>
    </g>
</svg>