<?xml version="1.0" encoding="utf-8"?>
<!-- Generator: Adobe Illustrator 24.1.1, SVG Export Plug-In . SVG Version: 6.00 Build 0)  -->
<svg version="1.1" id="Ebene_1" xmlns="http://www.w3.org/2000/svg" xmlns:xlink="http://www.w3.org/1999/xlink" x="0px" y="0px"
	 viewBox="0 0 156.3 54" style="enable-background:new 0 0 156.3 54;" xml:space="preserve">
<style type="text/css">
	.st0{fill:#E6007E;}
	.st1{fill:#70706F;}
	.st2{fill:#FFFFFF;}
</style>
<path class="st0" d="M30.5,0H2.8L3,0.2l13.5,11.3L30.5,0z"/>
<path class="st1" d="M0,3.9v27.4h7.6V10L0,3.9z M33.1,3.9L25.6,10v12.5h7.6V3.9z M15.1,27.5V54h141.2V27.5L15.1,27.5z"/>
<path class="st2" d="M87.4,30.6c-2.3,0-4.1,0.5-5.5,1.5c-1.4,0.9-2.2,2.5-2.2,4.1c0,1.5,0.5,2.8,1.5,3.8c1,0.9,2.6,1.6,4.8,2.2h0
	c0.2,0,0.5,0.1,0.8,0.2c1.7,0.4,2.8,0.8,3.2,1.1c0.3,0.2,0.5,0.5,0.6,0.8c0.2,0.3,0.2,0.6,0.2,0.7c0,0.5-0.2,1-0.8,1.4
	c-0.6,0.4-1.4,0.7-2.4,0.7c-1.5,0.1-3-0.5-4.1-1.6c-0.2-0.2-0.3-0.5-0.3-1l0-0.5h-4.2l0,0.6c0.1,1.1,0.3,1.9,0.7,2.6
	c0.4,0.7,1,1.3,1.7,1.8c1.5,1.2,3.5,1.7,5.9,1.7c2.4,0,4.3-0.5,5.8-1.7c1.5-1,2.3-2.7,2.3-4.5c0-1.5-0.5-2.8-1.5-3.7
	c-1-0.9-2.9-1.6-5.8-2.3c-1.8-0.4-3.1-0.9-3.5-1.2c-0.5-0.4-0.7-0.7-0.7-1.3c0-0.5,0.2-0.9,0.8-1.3c0.6-0.4,1.3-0.6,2.3-0.6
	c1.2,0,2.1,0.3,2.7,0.8c0.3,0.3,0.6,0.5,0.8,0.8c0.2,0.3,0.3,0.6,0.3,1l0,0.5l4.1,0v-0.5c0-1.9-0.8-3.3-2.1-4.4
	C91.4,31.2,89.6,30.6,87.4,30.6L87.4,30.6z M60.7,31.1v19.3h4V38l7.8,12.4l4,0V31.1h-4v12.4l-7.7-12.4L60.7,31.1L60.7,31.1z
	 M98.4,31.1v0.5v18.8h4.1V42h7.6v8.4h4.1V31.1H110v7.2h-7.6v-7.2L98.4,31.1L98.4,31.1z M20.2,31.1v19.3H24v-12l3.6,12h3.8l3.6-12.1
	v12.1h3.9V31.1h-5.3l-4.1,13.3l-4-13.3L20.2,31.1L20.2,31.1z M43.1,31.1v19.3h14.5v-3.8H47.1v-4.5h9.3v-3.6h-9.3v-3.7h10.1v-3.7
	H43.1L43.1,31.1z M118.2,31.1v19.3h0h14.4h0v-3.8h0h-10.4v-4.5h9.3h0v-3.6h0v0h-9.3v-3.7l10.1,0h0v-3.7h0L118.2,31.1L118.2,31.1
	L118.2,31.1z M135.6,31.1v19.3h3.9V38l7.8,12.4h4V31.1h-4v12.4l-7.7-12.4H135.6z"/>
</svg>
